<svg xmlns="http://www.w3.org/2000/svg" xmlns:xlink="http://www.w3.org/1999/xlink" width="400" zoomAndPan="magnify" viewBox="0 0 300 149.999998" height="200" preserveAspectRatio="xMidYMid meet" version="1.0"><path stroke-linecap="butt" transform="matrix(0.546501, 0, 0, 0.546501, 17.291883, -4.491481)" fill="none" stroke-linejoin="miter" d="M 116.002743 106.557292 C 116.817586 107.429317 117.518065 107.779557 118.275726 107.779557 C 119.56232 107.779557 121.485063 105.620938 121.485063 104.048434 C 121.485063 103.119227 120.898948 102.182872 119.56232 101.074972 C 108.590531 91.861528 95.524453 85.793093 79.663606 85.793093 C 45.833328 85.793093 18.764817 113.03315 18.764817 146.863427 C 18.764817 180.400648 45.833328 207.762216 79.663606 207.762216 C 95.295725 207.762216 108.940771 202.39426 120.377163 192.008586 L 120.377163 192.244462 C 121.720939 191.250925 122.299906 190.321718 122.299906 189.385364 C 122.299906 187.576984 120.491527 185.768604 118.740329 185.768604 C 117.982668 185.768604 117.282189 186.118844 116.467346 186.762141 C 106.782152 195.804039 93.894767 200.93612 79.427731 200.93612 C 49.793179 200.93612 25.297857 176.433649 25.297857 146.863427 C 25.297857 117.114512 49.793179 92.619189 79.427731 92.619189 C 93.430164 92.619189 106.081673 97.865634 116.002743 106.557292 Z M 70.328651 146.341642 C 70.328651 142.431825 73.595171 139.222488 77.504987 139.222488 C 81.471986 139.222488 84.681323 142.431825 84.681323 146.341642 C 84.681323 150.301493 81.471986 153.51083 77.504987 153.51083 C 73.595171 153.51083 70.328651 150.301493 70.328651 146.341642 Z M 203.076575 193.059305 L 159.911341 89.760091 C 159.210862 88.652191 158.274508 88.066076 157.052243 88.066076 C 154.77926 88.066076 153.142427 89.988819 153.142427 91.740017 C 153.142427 92.147438 153.256791 92.497678 153.378302 92.969429 L 199.338304 202.973227 C 200.217476 204.317003 201.382559 205.367722 202.726335 205.367722 L 203.426814 205.367722 C 204.70626 205.367722 205.699797 204.552879 206.278764 203.559342 C 221.217552 167.163024 237.371456 129.422929 252.538971 92.969429 C 252.653335 92.619189 252.767699 92.147438 252.767699 91.511289 C 252.767699 90.46057 251.545435 88.066076 249.036576 88.066076 C 247.75713 88.066076 246.763593 89.116794 245.94875 90.574934 Z M 291.572808 201.693781 C 291.572808 203.966764 292.73789 205.131846 295.246749 205.131846 C 297.526879 205.131846 298.63478 203.966764 298.63478 201.693781 L 298.63478 91.861528 C 298.63478 89.63858 297.526879 88.416315 295.246749 88.416315 C 292.73789 88.416315 291.572808 89.63858 291.572808 91.861528 Z M 343.508324 146.863427 C 343.508324 180.400648 370.748381 207.762216 404.228419 207.762216 C 438.001515 207.762216 465.241572 180.400648 465.241572 146.863427 C 465.241572 113.03315 438.001515 85.793093 404.228419 85.793093 C 370.748381 85.793093 343.508324 113.03315 343.508324 146.863427 Z M 350.334421 146.863427 C 350.334421 117.114512 374.951255 92.619189 404.578659 92.619189 C 434.21321 92.619189 458.708533 117.114512 458.708533 146.863427 C 458.708533 176.433649 434.21321 200.93612 404.578659 200.93612 C 374.951255 200.93612 350.334421 176.433649 350.334421 146.863427 Z M 397.402323 146.341642 C 397.402323 142.431825 400.61166 139.222488 404.578659 139.222488 C 408.545657 139.222488 411.754995 142.431825 411.754995 146.341642 C 411.754995 150.301493 408.545657 153.51083 404.578659 153.51083 C 400.61166 153.51083 397.402323 150.301493 397.402323 146.341642 Z M 397.402323 146.341642 " stroke="#ffffff" stroke-width="1.642596" stroke-opacity="1" stroke-miterlimit="4"/></svg>